<?xml version="1.0" encoding="iso-8859-1"?>
<!-- Generator: Adobe Illustrator 19.1.0, SVG Export Plug-In . SVG Version: 6.00 Build 0)  -->
<svg version="1.1" id="Capa_1" xmlns="http://www.w3.org/2000/svg" xmlns:xlink="http://www.w3.org/1999/xlink" x="0px" y="0px"
	 viewBox="0 0 489.1 489.1" style="enable-background:new 0 0 489.1 489.1;" xml:space="preserve">
<g>
	<path d="M424,265.75c-10.7,0-20.9,2.6-29.8,7.3L308,163.85c14.8-15.7,23.9-36.8,23.9-60c0-48.2-39.2-87.4-87.4-87.4
		s-87.4,39.2-87.4,87.4c0,22.9,8.8,43.7,23.3,59.3l-86.6,109.3c-8.7-4.3-18.5-6.8-28.8-6.8c-35.8,0-65,29.1-65,65s29.1,65,65,65
		s65-29.1,65-65c0-15.7-5.6-30.2-15-41.4l86.5-109.4c9,5.1,18.9,8.6,29.5,10.3v153.9c-29.4,6.2-51.5,32.4-51.5,63.6
		c0,35.8,29.1,65,65,65s65-29.1,65-65c0-31.2-22.1-57.3-51.5-63.6v-153.9c10.3-1.6,19.9-5,28.7-9.8l86.7,109.8
		c-8.9,11.1-14.3,25.2-14.3,40.6c0,35.8,29.1,65,65,65s65-29.1,65-65S459.9,265.75,424,265.75z M65,368.65c-20.9,0-38-17-38-38
		s17-38,38-38s38,17,38,38S85.9,368.65,65,368.65z M282.5,407.55c0,20.9-17,38-38,38c-20.9,0-38-17-38-38c0-20.7,16.7-37.6,37.3-38
		c0.2,0,0.4,0,0.7,0c0.3,0,0.4,0,0.7,0C265.8,369.95,282.5,386.85,282.5,407.55z M244.5,164.15c-33.3,0-60.4-27.1-60.4-60.4
		s27.1-60.4,60.4-60.4s60.4,27.1,60.4,60.4S277.8,164.15,244.5,164.15z M424,368.65c-20.9,0-38-17-38-38s17-38,38-38s38,17,38,38
		S445,368.65,424,368.65z"/>
</g>
<g>
</g>
<g>
</g>
<g>
</g>
<g>
</g>
<g>
</g>
<g>
</g>
<g>
</g>
<g>
</g>
<g>
</g>
<g>
</g>
<g>
</g>
<g>
</g>
<g>
</g>
<g>
</g>
<g>
</g>
</svg>
